<svg id="5d5152b2-db4a-4aa2-8d05-0596eedf6adf" data-name="Layer 1" xmlns="http://www.w3.org/2000/svg" viewBox="0 0 643.87 679.03"><defs><style>.\30 4c43476-966e-400e-8219-5f41ea939b44{fill:#f7bc17;}.b738bc2f-57a6-4a16-89bc-460eb32f9751{fill:#8a4110;}.\38 23033d4-1399-4048-a8a9-e483341942cf{fill:#cb4a50;}</style></defs><title>marker</title><path class="04c43476-966e-400e-8219-5f41ea939b44" d="M575.27,87.1v65a12,12,0,0,1-12,12h-17v40a12,12,0,0,1-12,12h-7v33a12,12,0,0,1-12,12H498.89a11.92,11.92,0,0,1,.38,3v33a12,12,0,0,1-12,12H476.1a12,12,0,0,1,.17,2v34a12,12,0,0,1-12,12h-11v20a12,12,0,0,1-5,9.73V403.1a12,12,0,0,1-12,12h-3v13a12,12,0,0,1-12,12h-9a8.27,8.27,0,0,1,0,1v43a12,12,0,0,1-12,12h-20v41a12,12,0,0,1-12,12h-9v38a12,12,0,0,1-12,12h-40a12,12,0,0,1-12-12v-38h-19a12,12,0,0,1-12-12v-41h-20a12,12,0,0,1-12-12v-43a8.27,8.27,0,0,1,0-1h-4a12,12,0,0,1-12-12v-13h-18a12,12,0,0,1-12-12v-18a12,12,0,0,1,12-12h3v-16h-17a12,12,0,0,1-12-12v-34a12,12,0,0,1,.17-2H156.27a12,12,0,0,1-12-12v-33a11.92,11.92,0,0,1,.38-3h-9.38a12,12,0,0,1-12-12v-33h-12a12,12,0,0,1-12-12v-40h-25a12,12,0,0,1-12-12v-65a12,12,0,0,1,12-12h489A12,12,0,0,1,575.27,87.1Z"/><path class="b738bc2f-57a6-4a16-89bc-460eb32f9751" d="M326.66,679,48.34,141.89c-11.94,2.62-23.06.57-32.91-7.05C-8.11,116.62-4.09,81.25,23.19,68.5A736.33,736.33,0,0,1,364.16.66,728.56,728.56,0,0,1,619.11,57.85c18.58,7.85,28.05,25.4,23.73,43.57-4.83,20.28-21.7,32.69-42.38,31.19-.62,0-1.24,0-1.93,0Zm236-560.11c-160.8-57-320-54.4-478.94,7.67L326.64,595.07Z"/><path class="823033d4-1399-4048-a8a9-e483341942cf" d="M322.35,343.06a37.56,37.56,0,1,1-37.63,37.25A37.43,37.43,0,0,1,322.35,343.06Z"/><path class="823033d4-1399-4048-a8a9-e483341942cf" d="M400.23,190.4a37.55,37.55,0,0,1,.55,75.09,37.55,37.55,0,1,1-.55-75.09Z"/><path class="823033d4-1399-4048-a8a9-e483341942cf" d="M233.79,235.89a37.53,37.53,0,1,1,37.57-37.46A37.38,37.38,0,0,1,233.79,235.89Z"/></svg>