<svg id="svg" xmlns="http://www.w3.org/2000/svg" xmlns:xlink="http://www.w3.org/1999/xlink" width="400" height="348.1632653061224" viewBox="0, 0, 400,348.1632653061224" version="1.1"><g id="svgg"><path id="path0" d="M147.551 0.825 C 135.832 3.178,125.086 14.881,122.638 27.959 C 120.654 38.558,119.923 36.032,144.900 104.898 C 174.412 186.267,176.955 193.385,176.629 193.711 C 176.503 193.837,174.960 193.521,173.200 193.008 C 159.715 189.078,144.731 196.606,140.817 209.277 C 137.519 219.955,138.709 231.320,144.568 245.102 C 160.917 283.554,184.456 314.989,210.206 332.758 C 215.100 336.135,235.141 347.142,237.586 347.796 C 242.722 349.170,247.349 345.338,247.345 339.714 C 247.343 335.167,245.137 333.003,234.716 327.320 C 204.580 310.887,185.641 290.058,167.198 253.061 C 155.233 229.061,153.040 218.245,158.809 211.691 C 163.067 206.854,164.841 206.987,172.261 212.696 C 187.586 224.489,187.678 224.620,196.143 246.939 C 201.837 261.953,204.247 266.558,207.123 267.922 C 211.936 270.206,218.776 265.894,218.776 260.577 C 218.776 258.110,217.408 253.826,211.554 237.959 C 196.058 195.957,156.340 86.178,142.368 46.735 C 138.208 34.990,137.901 33.915,138.086 31.759 C 139.116 19.774,156.432 12.685,166.297 20.209 C 168.442 21.845,169.885 24.470,172.576 31.633 C 178.830 48.278,201.342 109.966,215.136 148.258 C 226.181 178.918,227.275 181.615,229.726 184.219 C 233.428 188.150,239.277 187.181,242.498 182.103 C 244.311 179.244,244.130 177.877,240.574 167.551 C 234.016 148.506,233.166 145.338,233.549 141.351 C 234.376 132.749,247.146 125.483,256.052 128.547 C 263.322 131.048,263.908 132.055,273.653 158.776 C 281.230 179.553,281.898 181.097,284.130 183.008 C 287.304 185.724,290.918 185.775,294.329 183.152 C 298.866 179.663,298.703 177.026,292.963 161.012 C 287.104 144.665,286.533 141.801,288.230 137.260 C 291.150 129.444,303.603 124.090,311.254 127.361 C 317.103 129.862,319.511 134.158,327.374 156.122 C 336.841 182.565,337.259 183.265,343.577 183.265 C 350.437 183.265,353.073 178.103,350.472 169.765 C 345.685 154.425,347.185 147.725,356.393 143.331 C 369.094 137.269,375.436 145.798,379.564 174.490 C 382.291 193.449,383.182 216.993,381.795 233.469 C 380.154 252.974,380.598 285.997,382.549 289.522 C 385.418 294.706,393.840 294.624,396.919 289.382 C 397.841 287.813,397.786 289.902,397.532 266.122 C 397.411 254.848,397.672 249.479,399.013 235.714 C 401.835 206.723,396.945 158.734,389.696 144.286 C 379.416 123.798,358.152 118.518,342.713 132.621 C 338.678 136.307,338.535 136.371,337.890 134.796 C 331.502 119.206,320.609 110.831,306.028 110.298 C 294.430 109.874,290.232 111.426,281.397 119.406 C 276.936 123.435,277.039 123.412,274.217 120.988 C 262.759 111.146,247.460 108.655,235.524 114.689 C 233.320 115.803,230.433 117.869,226.345 121.257 L 224.323 122.933 223.841 121.569 C 218.237 105.716,191.748 33.866,188.632 26.064 C 183.834 14.053,180.928 10.361,172.009 4.948 C 166.081 1.350,154.588 -0.587,147.551 0.825 M44.082 15.463 C 42.212 16.491,38.449 19.729,26.873 30.268 C 1.018 53.807,-0.003 54.874,0.004 58.335 C 0.016 63.994,5.532 68.548,10.420 66.935 C 12.200 66.347,18.516 61.125,29.184 51.422 L 36.939 44.367 37.195 66.367 C 37.977 133.538,50.098 211.118,64.673 242.245 C 68.817 251.096,75.331 252.998,80.562 246.886 C 83.293 243.696,83.150 242.330,78.983 231.837 C 66.320 199.942,57.442 146.929,54.682 86.735 C 53.853 68.654,54.087 44.082,55.088 44.082 C 55.260 44.082,58.702 47.709,62.737 52.143 C 79.982 71.092,81.686 72.287,87.328 69.393 C 91.379 67.316,93.205 61.852,90.924 58.634 C 88.641 55.413,63.588 27.357,56.103 19.639 L 51.594 14.990 48.552 14.834 C 46.112 14.708,45.228 14.833,44.082 15.463 " stroke="none" fill="#000000" fill-rule="evenodd"></path></g></svg>